<svg height="512pt" viewBox="-61 0 512 512" width="512pt" xmlns="http://www.w3.org/2000/svg"><path d="m150 0c-66.300781 0-120 55.699219-120 122s53.699219 120 120 120 120-53.699219 120-120-53.699219-122-120-122zm0 0" fill="#fdbf00"/><path d="m270 122c0 66.300781-53.699219 120-120 120v-242c66.300781 0 120 55.699219 120 122zm0 0" fill="#ff9100"/><path d="m300 392v75c0 8.398438-6.597656 15-15 15h-270c-8.402344 0-15-6.601562-15-15v-75c0-82.800781 67.199219-150 150-150 41.398438 0 78.898438 16.800781 106.199219 43.800781 27 27.300781 43.800781 64.800781 43.800781 106.199219zm0 0" fill="#fdbf00"/><path d="m300 392v75c0 8.398438-6.597656 15-15 15h-135v-240c41.398438 0 78.898438 16.800781 106.199219 43.800781 27 27.300781 43.800781 64.800781 43.800781 106.199219zm0 0" fill="#ff9100"/><path d="m210 122c0 33-27 60-60 60s-60-27-60-60c0-8.402344 6.597656-15 15-15s15 6.597656 15 15c0 16.5 13.5 30 30 30s30-13.5 30-30c0-8.402344 6.597656-15 15-15s15 6.597656 15 15zm0 0" fill="#575f64"/><path d="m150 182v-30c16.5 0 30-13.5 30-30 0-8.402344 6.597656-15 15-15s15 6.597656 15 15c0 33-27 60-60 60zm0 0" fill="#32393f"/><path d="m285 512c-57.890625 0-105-47.109375-105-105s47.109375-105 105-105 105 47.109375 105 105-47.109375 105-105 105zm0 0" fill="#6b0"/><path d="m315 392h-15v-15c0-8.289062-6.710938-15-15-15s-15 6.710938-15 15v15h-15c-8.289062 0-15 6.710938-15 15s6.710938 15 15 15h15v15c0 8.289062 6.710938 15 15 15s15-6.710938 15-15v-15h15c8.289062 0 15-6.710938 15-15s-6.710938-15-15-15zm0 0" fill="#d8d8fc"/></svg>