<svg width="512" height="512" xmlns="http://www.w3.org/2000/svg">

 <g>
  <title>background</title>
  <rect fill="none" id="canvas_background" height="402" width="582" y="-1" x="-1"/>
 </g>
 <g>
  <title>Layer 1</title>
  <circle id="svg_3" r="256" fill="#5fbf00" cy="256" cx="256"/>
  <path id="svg_4" fill="#3f7f00" d="m256,469.33386c-117.63092,0 -213.33333,-95.70187 -213.33333,-213.33334c0,-117.63092 95.70241,-213.33331 213.33333,-213.33331c117.63626,0 213.33331,95.7024 213.33331,213.33331c0,117.63147 -95.69705,213.33334 -213.33331,213.33334z"/>
  <path id="svg_5" opacity="0.3" d="m346.62878,261.58881c2.97068,-6.80001 4.64322,-14.29654 4.64322,-22.1904c0,-30.65868 -24.85333,-55.51201 -55.51199,-55.51201c-14.74667,0 -28.12695,5.76854 -38.05975,15.15201c-3.82933,-1.98401 -8.16747,-3.12268 -12.77813,-3.12268c-11.78826,0 -21.84373,7.33601 -25.90826,17.68161c-2.83733,-0.6288 -5.77814,-0.98027 -8.80533,-0.98027c-22.37654,0 -40.51573,18.13974 -40.51573,40.5168c0,3.74507 0.5488,7.35466 1.49974,10.79734c-15.85281,5.79093 -27.19253,20.96158 -27.19253,38.81919l0,0c0,22.84375 18.51945,41.36319 41.3637,41.36319l157.27306,0c22.84427,0 41.36322,-18.51944 41.36322,-41.36319l0,0c0,-21.49652 -16.40106,-39.15201 -37.37122,-41.16159zm-103.9029,48.39785l-33.88962,-33.89172l7.0704,-7.0704l26.81922,26.82132l57.17491,-57.17493l7.07043,7.06987l-64.24534,64.24586z"/>
  <path id="svg_6" fill="#FFFFFF" d="m338.62878,253.58881c2.97068,-6.80001 4.64322,-14.29654 4.64322,-22.1904c0,-30.65868 -24.85333,-55.51201 -55.51199,-55.51201c-14.74667,0 -28.12695,5.76854 -38.05975,15.15201c-3.82933,-1.98401 -8.16747,-3.12268 -12.77813,-3.12268c-11.78826,0 -21.84373,7.33601 -25.90826,17.68161c-2.83733,-0.6288 -5.77814,-0.98027 -8.80533,-0.98027c-22.37654,0 -40.51573,18.13974 -40.51573,40.5168c0,3.74507 0.5488,7.35467 1.49974,10.79733c-15.85281,5.79094 -27.19253,20.96159 -27.19253,38.8192l0,0c0,22.84375 18.51945,41.36319 41.3637,41.36319l157.27306,0c22.84427,0 41.36322,-18.51944 41.36322,-41.36319l0,0c0,-21.49652 -16.40106,-39.152 -37.37122,-41.16159zm-103.9029,48.39785l-33.88962,-33.89172l7.0704,-7.0704l26.81922,26.82132l57.17491,-57.17493l7.07043,7.06987l-64.24534,64.24586z"/>
 </g>
</svg>