<svg width="64" height="64" xmlns="http://www.w3.org/2000/svg">

 <g>
  <title>background</title>
  <rect fill="none" id="canvas_background" height="402" width="582" y="-1" x="-1"/>
 </g>
 <g>
  <title>Layer 1</title>
  <polygon opacity="0.2" id="svg_5" points="48,26 48,18 16,18 16,26 16,50 48,50    " fill="#231F20"/>
  <path stroke="null" opacity="0.2" id="svg_7" fill="#231F20" d="m51.355658,17.09753l-38.195061,0c-2.636653,0 -4.774383,1.791 -4.774383,4l0,8l0,24c0,2.209 2.13773,4 4.774383,4l38.195061,0c2.636653,0 4.774383,-1.791 4.774383,-4l0,-24l0,-8c0,-2.209 -2.13773,-4 -4.774383,-4z"/>
  <path stroke="null" id="svg_10" fill="#f4f5fa" d="m14.256204,52.168272c-1.223213,0 -2.217974,-1.010198 -2.217974,-2.252392l0,-36.038264c0,-1.242194 0.994762,-2.252392 2.217974,-2.252392l35.487591,0c1.223213,0 2.217974,1.010198 2.217974,2.252392l0,36.038264c0,1.242194 -0.994762,2.252392 -2.217974,2.252392l-35.487591,0z"/>
  <path stroke="null" id="svg_12" fill="#4da1ff" d="m51.159483,11.766706l0,8.413005l0,25.239014l-38.112461,0l0,-25.239014l0,-8.413005l38.112461,0m0,-4.206502l-38.112461,0c-2.630951,0 -4.764058,1.883461 -4.764058,4.206502l0,8.413005l0,25.239014c0,2.323041 2.133107,4.206502 4.764058,4.206502l38.112461,0c2.630951,0 4.764058,-1.883461 4.764058,-4.206502l0,-25.239014l0,-8.413005c0,-2.323041 -2.133107,-4.206502 -4.764058,-4.206502l0,0z"/>
  <rect stroke="null" id="svg_14" y="47.613785" x="12.90247" width="38.814567" height="4" fill="#4da1ff"/>
  <path stroke="null" id="svg_17" fill="#4F5D73" d="m12.95749,45.430882l37.993532,0l0,-3.180282c0,0 -1.857433,-3.241252 -3.577681,-5.272887c-1.280387,-1.511205 -3.192258,-1.938001 -4.860245,-0.082746l-2.99628,2.877605l-6.531499,-8.306186c-2.4323,-3.09318 -6.412824,-3.09318 -8.845124,0l-11.182702,13.964496z"/>
  <circle id="svg_19" r="3" fill="#F5CF87" cy="24" cx="40"/>
  <path stroke="null" id="svg_21" fill="#4da1ff" d="m51.33501,12.14874l0,9.59006l0,28.7702l-38.36026,0l0,-28.7702l0,-9.59006l38.36026,0m0,-4.79504l-38.36026,0c-2.64806,0 -4.79504,2.14698 -4.79504,4.79504l0,9.59006l0,28.7702c0,2.64806 2.14698,4.79503 4.79504,4.79503l38.36026,0c2.64806,0 4.79503,-2.14697 4.79503,-4.79503l0,-28.7702l0,-9.59006c0,-2.64806 -2.14697,-4.79504 -4.79503,-4.79504l0,0z"/>
 </g>
</svg>