<svg width="64" height="64" xmlns="http://www.w3.org/2000/svg" preserveAspectRatio="xMidYMid">

 <g>
  <title>background</title>
  <rect fill="none" id="canvas_background" height="66" width="66" y="-1" x="-1"/>
 </g>
 <g>
  <title>Layer 1</title>
  <g stroke="null" id="svg_1">
   <path stroke="null" fill-rule="evenodd" fill="#ff5656" id="svg_2" d="m53.130448,20.293643l0,34.840211c0,2.309441 -1.94773,4.181156 -4.349357,4.181156l-33.344788,0c-2.402486,0 -4.349357,-1.871715 -4.349357,-4.181156l0,-44.595139c0,-2.309441 1.946872,-4.181156 4.349357,-4.181156l23.196001,0l14.498144,13.936084z" class="cls-1"/>
   <path stroke="null" fill="#f4f5fa" fill-rule="evenodd" id="svg_3" d="m53.130448,19.513348l0,1.734357l-11.851978,0c-2.453968,0 -3.58571,-1.919708 -3.58571,-4.287071l0,-10.603075l1.795,0l13.642688,13.155789z" class="cls-2"/>
   <path stroke="null" fill="#f4f5fa" fill-rule="evenodd" id="svg_4" d="m43.35405,34.5301c-0.3741,-0.11916 -0.73448,-0.17956 -1.08198,-0.17956c-0.39469,0 -0.66583,0.07861 -0.81427,0.23582c-0.14758,0.15722 -0.22137,0.43525 -0.22137,0.83491l0,0.76375l1.65857,0l0,1.53411l-1.65857,0l0,6.31766l-2.00951,0l0,-6.31766l-1.03564,0l0,-1.53411l1.03564,0l0,-0.76375c0,-0.97309 0.25054,-1.67643 0.75163,-2.11085c0.50109,-0.43442 1.25444,-0.65121 2.26177,-0.65121c0.47278,0 0.97387,0.06206 1.50327,0.187l-0.38954,1.68389zm-8.41728,8.74294c-0.37411,0.30451 -0.7688,0.54695 -1.18409,0.72651c-0.41528,0.17956 -0.8872,0.26892 -1.41661,0.26892c-1.02792,0 -1.81473,-0.35663 -2.35958,-1.0699c-0.54571,-0.7141 -0.8177,-1.72195 -0.8177,-3.02437c0,-1.33221 0.29945,-2.36736 0.89921,-3.10628c0.59977,-0.7381 1.44149,-1.10797 2.5269,-1.10797c0.3844,0 0.77824,0.07612 1.18323,0.22838c0.40499,0.15225 0.74048,0.34587 1.00475,0.58005l0,-3.87748l2.00951,0l0,11.14589l-1.84562,0l0,-0.76375zm-0.16389,-4.91015c-0.21279,-0.18452 -0.47621,-0.34836 -0.79024,-0.49068c-0.31404,-0.1415 -0.63495,-0.21266 -0.96186,-0.21266c-0.5397,0 -0.973,0.22341 -1.29991,0.66942c-0.32777,0.44682 -0.4908,1.0517 -0.4908,1.81544c0,0.75382 0.13386,1.34463 0.4007,1.77408c0.26771,0.42945 0.68128,0.64376 1.24243,0.64376c0.33206,0 0.67098,-0.07364 1.01591,-0.22093c0.34493,-0.14729 0.64009,-0.3285 0.88377,-0.54281l0,-3.43562zm-8.58889,5.3967c-0.49336,0.33925 -1.08197,0.50888 -1.76754,0.50888c-0.9035,0 -1.67402,-0.2714 -2.31239,-0.81587l0,3.5407l-2.00951,0l0,-10.80828l1.85335,0l0,0.77036c0.3741,-0.30947 0.76708,-0.55274 1.17979,-0.72982c0.41271,-0.17708 0.88635,-0.26561 1.4209,-0.26561c1.03307,0 1.81988,0.34918 2.35958,1.04839c0.5397,0.69838 0.80998,1.71367 0.80998,3.04588c0,0.84401 -0.13213,1.58707 -0.39726,2.23083c-0.26514,0.64377 -0.64353,1.13528 -1.1369,1.47454zm-0.94984,-5.46041c-0.27542,-0.42697 -0.68556,-0.63963 -1.23041,-0.63963c-0.32691,0 -0.66326,0.07364 -1.00819,0.2201c-0.34578,0.14729 -0.64266,0.32851 -0.89149,0.54282l0,3.43561c0.21279,0.18535 0.47621,0.34836 0.79025,0.49069c0.31403,0.14232 0.63665,0.21348 0.96957,0.21348c0.55,0 0.98502,-0.2259 1.30421,-0.67769c0.31918,-0.45179 0.47878,-1.0517 0.47878,-1.79972c0,-0.76375 -0.13815,-1.35869 -0.41272,-1.78566z" class="cls-3"/>
  </g>
 </g>
</svg>