<svg width="512" height="512" xmlns="http://www.w3.org/2000/svg">
 <defs>
  <linearGradient y2="Infinity" y1="Infinity" x2="Infinity" x1="-Infinity" id="SVGID_1_">
   <stop stop-color="#E24263" offset="0"/>
   <stop stop-color="#DD1E47" offset="1"/>
  </linearGradient>
  <linearGradient y2="Infinity" y1="Infinity" x2="Infinity" x1="Infinity" id="SVGID_2_">
   <stop stop-color="#DD1E47" offset="0"/>
   <stop stop-color="#E24263" offset="1"/>
  </linearGradient>
 </defs>
 <g>
  <title>background</title>
  <rect fill="none" id="canvas_background" height="402" width="582" y="-1" x="-1"/>
 </g>
 <g>
  <title>Layer 1</title>
  <circle id="svg_3" r="256" fill="url(#SVGID_1_)" cy="256" cx="256"/>
  <path id="svg_4" fill="url(#SVGID_2_)" d="m256,469.33386c-117.631,0 -213.33334,-95.70187 -213.33334,-213.33334c0,-117.63092 95.70234,-213.33331 213.33334,-213.33331c117.6362,0 213.33334,95.7024 213.33334,213.33331c0,117.63147 -95.69714,213.33334 -213.33334,213.33334z"/>
  <path id="svg_6" opacity="0.3" d="m145.20474,321.3808l0,62.6192l237.59094,0l0,-62.6192l-237.59094,0zm156.22614,43.82507l-74.86347,0l0,-24.41174l10,0l0,14.41174l54.86347,0l0,-14.41174l10,0l0,24.41174z"/>
  <path id="svg_7" opacity="0.3" d="m145.20474,232.69014l0,62.61974l237.59094,0l0,-62.61974l-237.59094,0zm156.22614,43.82399l-74.86347,0l0,-24.40906l10,0l0,14.40906l54.86347,0l0,-14.40906l10,0l0,24.40906z"/>
  <path id="svg_8" opacity="0.3" d="m145.20474,144l0,62.6192l237.59094,0l0,-62.6192l-237.59094,0zm156.22614,43.82507l-74.86347,0l0,-24.41121l10,0l0,14.41121l54.86347,0l0,-14.41121l10,0l0,24.41121z"/>
  <path id="svg_10" fill="#FFFFFF" d="m137.20474,313.3808l0,62.6192l237.59094,0l0,-62.6192l-237.59094,0zm156.22614,43.82507l-74.86347,0l0,-24.41174l10,0l0,14.41174l54.86347,0l0,-14.41174l10,0l0,24.41174z"/>
  <path id="svg_11" fill="#FFFFFF" d="m137.20474,224.69014l0,62.61974l237.59094,0l0,-62.61974l-237.59094,0zm156.22614,43.82399l-74.86347,0l0,-24.40906l10,0l0,14.40906l54.86347,0l0,-14.40906l10,0l0,24.40906z"/>
  <path id="svg_12" fill="#FFFFFF" d="m137.20474,136l0,62.6192l237.59094,0l0,-62.6192l-237.59094,0zm156.22614,43.82507l-74.86347,0l0,-24.41121l10,0l0,14.41121l54.86347,0l0,-14.41121l10,0l0,24.41121z"/>
 </g>
</svg>