<svg width="512" height="512" xmlns="http://www.w3.org/2000/svg">

 <g>
  <title>background</title>
  <rect fill="none" id="canvas_background" height="402" width="582" y="-1" x="-1"/>
 </g>
 <g>
  <title>Layer 1</title>
  <circle id="svg_3" r="256" fill="#56aaff" cy="256" cx="256"/>
  <path id="svg_4" fill="#007fff" d="m256,469.33386c-117.63152,0 -213.33334,-95.70187 -213.33334,-213.33334s95.70182,-213.33332 213.33334,-213.33332c117.63568,0 213.33334,95.70186 213.33334,213.33331s-95.69766,213.33335 -213.33334,213.33335z"/>
  <path id="svg_6" opacity="0.3" d="m236.03142,288.51468c14.77867,0 27.92161,-6.90454 36.40108,-17.62509c6.2384,-7.93439 9.99417,-17.928 9.99417,-28.83039c0,-25.61973 -20.77552,-46.3952 -46.39525,-46.3952c-25.68106,0 -46.45546,20.77547 -46.45546,46.3952c0,10.90239 3.75467,20.896 9.99359,28.83039c8.47948,10.72055 21.68321,17.62509 36.46187,17.62509z"/>
  <path id="svg_7" opacity="0.3" d="m282.36047,274.56107c-0.62079,0.88641 -1.22931,1.77865 -1.90344,2.63732c-10.89813,13.7728 -27.18135,21.6576 -44.70236,21.6576c-17.56004,0 -33.86778,-7.8848 -44.74619,-21.63306c-0.67781,-0.86294 -1.28906,-1.75946 -1.91305,-2.6496c-26.5744,11.776 -45.09543,38.31202 -45.09543,69.23679l0,28.19894l183.50662,0l0,-28.19894c0,-30.92212 -18.56534,-57.50452 -45.14615,-69.24905z"/>
  <path id="svg_8" opacity="0.3" d="m292.70663,241.84053c0,2.67894 -0.25015,5.30934 -0.61334,7.91307c0.05173,0.00054 0.10132,0.00906 0.1536,0.00906c14.92425,0 28.19839,-6.97279 36.76214,-17.8c6.30027,-8.0128 10.09278,-18.10559 10.09278,-29.11625c0,-25.87415 -20.98078,-46.85547 -46.85492,-46.85547c-20.10614,0 -37.18454,12.63198 -43.86881,30.35412c25.33975,5.7648 44.32855,28.43361 44.32855,55.49547z"/>
  <path id="svg_9" opacity="0.3" d="m338.85333,235.56641c-0.6203,0.88586 -1.22885,1.77812 -1.9035,2.63679c-10.89813,13.77226 -27.18134,21.65813 -44.70187,21.65813c-0.81922,0 -1.61921,-0.10239 -2.43253,-0.13654c-0.68427,2.06613 -1.46875,4.09815 -2.38721,6.07788c27.19413,12.43467 45.73706,38.01813 49.45066,67.21173l47.12112,0l0,-28.19894c0,-30.92212 -18.56534,-57.50453 -45.14667,-69.24905z"/>
  <path id="svg_11" fill="#FFFFFF" d="m228.03142,280.51468c14.77867,0 27.9216,-6.90454 36.40108,-17.62509c6.2384,-7.93439 9.99417,-17.928 9.99417,-28.83039c0,-25.61973 -20.77552,-46.3952 -46.39525,-46.3952c-25.68106,0 -46.45546,20.77547 -46.45546,46.3952c0,10.90239 3.75467,20.896 9.99359,28.83039c8.47948,10.72055 21.68321,17.62509 36.46187,17.62509z"/>
  <path id="svg_12" fill="#FFFFFF" d="m274.36047,266.56107c-0.62079,0.88641 -1.22931,1.77865 -1.90344,2.63732c-10.89813,13.7728 -27.18135,21.6576 -44.70236,21.6576c-17.56004,0 -33.86778,-7.8848 -44.74619,-21.63306c-0.67781,-0.86294 -1.28906,-1.75946 -1.91305,-2.6496c-26.5744,11.776 -45.09543,38.31202 -45.09543,69.23679l0,28.19894l183.50662,0l0,-28.19894c0,-30.92212 -18.56534,-57.50452 -45.14615,-69.24905z"/>
  <path id="svg_13" fill="#FFFFFF" d="m284.70663,233.84053c0,2.67894 -0.25015,5.30934 -0.61334,7.91307c0.05173,0.00054 0.10132,0.00906 0.1536,0.00906c14.92425,0 28.19839,-6.97279 36.76214,-17.8c6.30027,-8.0128 10.09278,-18.10559 10.09278,-29.11625c0,-25.87415 -20.98078,-46.85547 -46.85492,-46.85547c-20.10614,0 -37.18454,12.63198 -43.86881,30.35412c25.33975,5.7648 44.32855,28.43361 44.32855,55.49547z"/>
  <path id="svg_14" fill="#FFFFFF" d="m330.85333,227.56641c-0.6203,0.88586 -1.22885,1.77812 -1.9035,2.63679c-10.89813,13.77226 -27.18134,21.65813 -44.70187,21.65813c-0.81922,0 -1.61921,-0.1024 -2.43253,-0.13654c-0.68427,2.06615 -1.46875,4.09815 -2.38721,6.07788c27.19413,12.43467 45.73706,38.01813 49.45066,67.21173l47.12112,0l0,-28.19894c0,-30.92212 -18.56534,-57.50453 -45.14667,-69.24905z"/>
 </g>
</svg>