<svg width="64" height="64" xmlns="http://www.w3.org/2000/svg">

 <g>
  <title>background</title>
  <rect fill="none" id="canvas_background" height="402" width="582" y="-1" x="-1"/>
 </g>
 <g>
  <title>Layer 1</title>
  <rect stroke="null" id="svg_5" y="29.59342" x="12.645712" width="5.016451" height="4.914805" fill="#f4f5fa"/>
  <rect stroke="null" id="svg_7" y="38.219741" x="12.544067" width="5.118096" height="4.81316" fill="#f4f5fa"/>
  <rect stroke="null" id="svg_9" y="46.439482" x="12.544067" width="5.118096" height="5.016451" fill="#f4f5fa"/>
  <rect stroke="null" id="svg_11" y="21.170388" x="12.544067" width="5.118096" height="4.914806" fill="#f4f5fa"/>
  <rect stroke="null" id="svg_13" y="12.747358" x="12.645712" width="4.914806" height="4.914806" fill="#f4f5fa"/>
  <rect stroke="null" id="svg_15" y="29.491775" x="46.236192" width="5.118096" height="5.016451" fill="#f4f5fa"/>
  <rect stroke="null" id="svg_17" y="38.118096" x="46.236192" width="5.016451" height="4.711515" fill="#f4f5fa"/>
  <rect stroke="null" id="svg_19" y="46.439482" x="46.337836" width="4.914806" height="4.711515" fill="#f4f5fa"/>
  <rect stroke="null" id="svg_21" y="21.170388" x="46.236192" width="5.118096" height="5.016451" fill="#f4f5fa"/>
  <rect stroke="null" id="svg_23" y="12.849003" x="46.134547" width="5.118096" height="4.81316" fill="#f4f5fa"/>
  <rect stroke="null" id="svg_25" y="12.442422" x="21.865454" width="19.964157" height="17.557578" fill="#f4f5fa"/>
  <rect stroke="null" id="svg_27" y="34" x="22.068744" width="19.862513" height="17.659223" fill="#f4f5fa"/>
  <path stroke="null" opacity="0.2" id="svg_29" fill="#231F20" d="m50.99853,10.13749l-38.09871,0c-2.63,0 -4.76233,2.13233 -4.76233,4.76234l0,38.0987c0,2.63 2.13233,4.76234 4.76233,4.76234l38.09871,0c2.63,0 4.76234,-2.13234 4.76234,-4.76234l0,-38.0987c0,-2.63001 -2.13234,-4.76234 -4.76234,-4.76234zm-33.33637,42.86104l-4.76234,0l0,-4.76234l4.76234,0l0,4.76234zm0,-8.33409l-4.76234,0l0,-4.76234l4.76234,0l0,4.76234zm0,-8.33409l-4.76234,0l0,-4.76234l4.76234,0l0,4.76234zm0,-8.33409l-4.76234,0l0,-4.76234l4.76234,0l0,4.76234zm0,-8.3341l-4.76234,0l0,-4.76233l4.76234,0l0,4.76233zm23.81169,33.33637l-19.04935,0l0,-16.66818l19.04935,0l0,16.66818zm0,-21.43052l-19.04935,0l0,-16.66818l19.04935,0l0,16.66818zm9.52468,21.43052l-4.76234,0l0,-4.76234l4.76234,0l0,4.76234zm0,-8.33409l-4.76234,0l0,-4.76234l4.76234,0l0,4.76234zm0,-8.33409l-4.76234,0l0,-4.76234l4.76234,0l0,4.76234zm0,-8.33409l-4.76234,0l0,-4.76234l4.76234,0l0,4.76234zm0,-8.3341l-4.76234,0l0,-4.76233l4.76234,0l0,4.76233z"/>
  <path stroke="null" id="svg_31" fill="#bf0000" d="m51.16116,8.035844l-38.423967,0c-2.652454,0 -4.802996,2.150541 -4.802996,4.802996l0,38.423967c0,2.652454 2.150541,4.802996 4.802996,4.802996l38.423967,0c2.652454,0 4.802996,-2.150541 4.802996,-4.802996l0,-38.423967c0,-2.652454 -2.150541,-4.802996 -4.802996,-4.802996zm-33.620971,43.226963l-4.802996,0l0,-4.802996l4.802996,0l0,4.802996zm0,-8.405243l-4.802996,0l0,-4.802996l4.802996,0l0,4.802996zm0,-8.405243l-4.802996,0l0,-4.802996l4.802996,0l0,4.802996zm0,-8.405243l-4.802996,0l0,-4.802996l4.802996,0l0,4.802996zm0,-8.405243l-4.802996,0l0,-4.802996l4.802996,0l0,4.802996zm24.01498,33.620971l-19.211984,0l0,-16.810486l19.211984,0l0,16.810486zm0,-21.613482l-19.211984,0l0,-16.810486l19.211984,0l0,16.810486zm9.605992,21.613482l-4.802996,0l0,-4.802996l4.802996,0l0,4.802996zm0,-8.405243l-4.802996,0l0,-4.802996l4.802996,0l0,4.802996zm0,-8.405243l-4.802996,0l0,-4.802996l4.802996,0l0,4.802996zm0,-8.405243l-4.802996,0l0,-4.802996l4.802996,0l0,4.802996zm0,-8.405243l-4.802996,0l0,-4.802996l4.802996,0l0,4.802996z"/>
 </g>
</svg>